<svg xmlns="http://www.w3.org/2000/svg" viewBox="0 0 1200 560" role="img" aria-labelledby="title description">
<title id="title">TrendFollow signal on an illustrative ticker chart</title>
<desc id="description">Price flips through an ATR-offset trailing regime. The chart is schematic and does not represent live market data.</desc>
<defs>
    <linearGradient id="background" x1="0" y1="0" x2="1" y2="1"><stop offset="0%" stop-color="#08111f"/><stop offset="100%" stop-color="#111b32"/></linearGradient>
    <linearGradient id="plot" x1="0" y1="0" x2="0" y2="1"><stop offset="0%" stop-color="#101b30"/><stop offset="100%" stop-color="#0b1426"/></linearGradient>
    <filter id="shadow" x="-20%" y="-20%" width="140%" height="150%"><feDropShadow dx="0" dy="7" stdDeviation="9" flood-color="#020617" flood-opacity="0.42"/></filter>
    <style>
      .title{fill:#f8fafc;font:700 28px Inter,ui-sans-serif,system-ui,sans-serif}.subtitle{fill:#94a3b8;font:400 15px Inter,ui-sans-serif,system-ui,sans-serif}.brand{fill:#475569;font:600 13px Inter,ui-sans-serif,system-ui,sans-serif;letter-spacing:.08em}.panel{fill:url(#plot);stroke:#26364f;stroke-width:1.5;filter:url(#shadow)}.grid{stroke:#20304a;stroke-width:1}.axis{fill:#64748b;font:600 10px Inter,ui-sans-serif,system-ui,sans-serif;letter-spacing:.08em}.overlay-label{fill:#cbd5e1;font:600 11px Inter,ui-sans-serif,system-ui,sans-serif}.annotation{fill:#e2e8f0;font:600 11px Inter,ui-sans-serif,system-ui,sans-serif}.condition-title{fill:#64748b;font:700 11px Inter,ui-sans-serif,system-ui,sans-serif;letter-spacing:.09em}.condition-number{fill:#08111f;font:800 12px Inter,ui-sans-serif,system-ui,sans-serif}.condition-copy{fill:#e2e8f0;font:500 13px Inter,ui-sans-serif,system-ui,sans-serif}.footer{fill:#94a3b8;font:500 12px Inter,ui-sans-serif,system-ui,sans-serif}.signal{fill:#08111f;font:800 11px Inter,ui-sans-serif,system-ui,sans-serif;letter-spacing:.03em}.risk{font:700 10px Inter,ui-sans-serif,system-ui,sans-serif;letter-spacing:.06em}
    </style>
  </defs>
<rect width="1200" height="560" rx="24" fill="url(#background)"/>
<text x="32" y="45" class="title">TrendFollow</text>
<text x="32" y="72" class="subtitle">Price flips through an ATR-offset trailing regime</text>
<text x="1168" y="45" text-anchor="end" class="brand">TRADEJS</text>
<rect x="32" y="104" width="790" height="416" rx="18" class="panel"/>
<rect x="842" y="104" width="326" height="416" rx="18" class="panel"/>
<text x="58" y="134" class="axis">ILLUSTRATIVE TICKER</text>
<text x="796" y="134" text-anchor="end" class="axis">SCHEMATIC • NOT LIVE DATA</text>
<line x1="58" y1="162.0" x2="796" y2="162.0" class="grid"/>
<line x1="58" y1="240.0" x2="796" y2="240.0" class="grid"/>
<line x1="58" y1="318.0" x2="796" y2="318.0" class="grid"/>
<line x1="58" y1="396.0" x2="796" y2="396.0" class="grid"/>
<line x1="58" y1="474.0" x2="796" y2="474.0" class="grid"/>
<line x1="58.0" y1="162" x2="58.0" y2="474" class="grid"/>
<line x1="205.6" y1="162" x2="205.6" y2="474" class="grid"/>
<line x1="353.2" y1="162" x2="353.2" y2="474" class="grid"/>
<line x1="500.8" y1="162" x2="500.8" y2="474" class="grid"/>
<line x1="648.4" y1="162" x2="648.4" y2="474" class="grid"/>
<line x1="796.0" y1="162" x2="796.0" y2="474" class="grid"/>
<line x1="58.0" y1="288.2" x2="58.0" y2="306.6" stroke="#34d399" stroke-width="1.5"/>
<rect x="51.5" y="293.7" width="13.0" height="5.5" rx="2" fill="#34d399"/>
<line x1="87.5" y1="282.0" x2="87.5" y2="316.6" stroke="#f87171" stroke-width="1.5"/>
<rect x="81.0" y="289.3" width="13.0" height="18.3" rx="2" fill="#f87171"/>
<line x1="117.0" y1="299.7" x2="117.0" y2="327.0" stroke="#f87171" stroke-width="1.5"/>
<rect x="110.5" y="308.8" width="13.0" height="12.7" rx="2" fill="#f87171"/>
<line x1="146.6" y1="320.1" x2="146.6" y2="349.5" stroke="#f87171" stroke-width="1.5"/>
<rect x="140.1" y="325.6" width="13.0" height="16.6" rx="2" fill="#f87171"/>
<line x1="176.1" y1="332.8" x2="176.1" y2="365.1" stroke="#f87171" stroke-width="1.5"/>
<rect x="169.6" y="340.0" width="13.0" height="16.1" rx="2" fill="#f87171"/>
<line x1="205.6" y1="343.5" x2="205.6" y2="375.5" stroke="#f87171" stroke-width="1.5"/>
<rect x="199.1" y="352.5" width="13.0" height="17.5" rx="2" fill="#f87171"/>
<line x1="235.1" y1="367.6" x2="235.1" y2="391.1" stroke="#f87171" stroke-width="1.5"/>
<rect x="228.6" y="373.2" width="13.0" height="10.7" rx="2" fill="#f87171"/>
<line x1="264.6" y1="379.4" x2="264.6" y2="406.7" stroke="#f87171" stroke-width="1.5"/>
<rect x="258.1" y="386.7" width="13.0" height="11.1" rx="2" fill="#f87171"/>
<line x1="294.2" y1="384.8" x2="294.2" y2="417.1" stroke="#f87171" stroke-width="1.5"/>
<rect x="287.7" y="393.9" width="13.0" height="17.7" rx="2" fill="#f87171"/>
<line x1="323.7" y1="404.3" x2="323.7" y2="432.7" stroke="#f87171" stroke-width="1.5"/>
<rect x="317.2" y="409.8" width="13.0" height="15.7" rx="2" fill="#f87171"/>
<line x1="353.2" y1="422.5" x2="353.2" y2="441.4" stroke="#f87171" stroke-width="1.5"/>
<rect x="346.7" y="429.8" width="13.0" height="2.6" rx="2" fill="#f87171"/>
<line x1="382.7" y1="416.5" x2="382.7" y2="438.6" stroke="#34d399" stroke-width="1.5"/>
<rect x="376.2" y="425.5" width="13.0" height="7.6" rx="2" fill="#34d399"/>
<line x1="412.2" y1="406.1" x2="412.2" y2="428.2" stroke="#34d399" stroke-width="1.5"/>
<rect x="405.7" y="411.6" width="13.0" height="9.4" rx="2" fill="#34d399"/>
<line x1="441.8" y1="383.5" x2="441.8" y2="421.1" stroke="#34d399" stroke-width="1.5"/>
<rect x="435.3" y="390.8" width="13.0" height="21.3" rx="2" fill="#34d399"/>
<line x1="471.3" y1="361.0" x2="471.3" y2="400.7" stroke="#34d399" stroke-width="1.5"/>
<rect x="464.8" y="370.0" width="13.0" height="25.2" rx="2" fill="#34d399"/>
<line x1="500.8" y1="343.7" x2="500.8" y2="375.7" stroke="#34d399" stroke-width="1.5"/>
<rect x="494.3" y="349.2" width="13.0" height="19.2" rx="2" fill="#34d399"/>
<line x1="530.3" y1="321.1" x2="530.3" y2="354.3" stroke="#34d399" stroke-width="1.5"/>
<rect x="523.8" y="328.4" width="13.0" height="16.8" rx="2" fill="#34d399"/>
<line x1="559.8" y1="298.6" x2="559.8" y2="336.6" stroke="#34d399" stroke-width="1.5"/>
<rect x="553.3" y="307.6" width="13.0" height="23.4" rx="2" fill="#34d399"/>
<line x1="589.4" y1="288.2" x2="589.4" y2="318.2" stroke="#34d399" stroke-width="1.5"/>
<rect x="582.9" y="293.7" width="13.0" height="17.1" rx="2" fill="#34d399"/>
<line x1="618.9" y1="272.6" x2="618.9" y2="299.3" stroke="#34d399" stroke-width="1.5"/>
<rect x="612.4" y="279.9" width="13.0" height="10.4" rx="2" fill="#34d399"/>
<line x1="648.4" y1="257.0" x2="648.4" y2="283.0" stroke="#34d399" stroke-width="1.5"/>
<rect x="641.9" y="266.0" width="13.0" height="11.5" rx="2" fill="#34d399"/>
<line x1="677.9" y1="246.6" x2="677.9" y2="277.4" stroke="#34d399" stroke-width="1.5"/>
<rect x="671.4" y="252.1" width="13.0" height="18.0" rx="2" fill="#34d399"/>
<line x1="707.4" y1="231.0" x2="707.4" y2="262.5" stroke="#34d399" stroke-width="1.5"/>
<rect x="700.9" y="238.3" width="13.0" height="15.2" rx="2" fill="#34d399"/>
<line x1="737.0" y1="215.4" x2="737.0" y2="239.4" stroke="#34d399" stroke-width="1.5"/>
<rect x="730.5" y="224.4" width="13.0" height="9.4" rx="2" fill="#34d399"/>
<line x1="766.5" y1="205.0" x2="766.5" y2="231.5" stroke="#34d399" stroke-width="1.5"/>
<rect x="760.0" y="210.5" width="13.0" height="13.7" rx="2" fill="#34d399"/>
<line x1="796.0" y1="189.4" x2="796.0" y2="224.0" stroke="#34d399" stroke-width="1.5"/>
<rect x="789.5" y="196.7" width="13.0" height="18.4" rx="2" fill="#34d399"/>
<polyline points="58.0,266.0 87.5,279.9 117.0,293.7 146.6,307.6 176.1,321.5 205.6,335.3 235.1,349.2 264.6,363.1 294.2,376.9 323.7,390.8 353.2,397.7 382.7,397.7 412.2,397.7 441.8,394.3 471.3,390.8 500.8,383.9 530.3,376.9 559.8,363.1 589.4,349.2 618.9,335.3 648.4,321.5 677.9,307.6 707.4,293.7 737.0,279.9 766.5,266.0 796.0,252.1" fill="none" stroke="#c084fc" stroke-width="3.5" stroke-linecap="round" stroke-linejoin="round"/>
<text x="791.0" y="244.1" text-anchor="end" class="overlay-label">ATR trailing state</text>
<circle cx="471.3" cy="370.0" r="4.5" fill="#f8fafc" stroke="#08111f" stroke-width="2"/>
<line x1="471.3" y1="376.0" x2="471.3" y2="389.0" stroke="#64748b" stroke-width="1.2"/>
<text x="471.3" y="401.0" text-anchor="middle" class="annotation">Trail flip</text>
<line x1="471.3" y1="162" x2="471.3" y2="474" stroke="#34d399" stroke-width="1.5" stroke-dasharray="4 5" stroke-opacity=".75"/>
<polygon points="464.28,413 478.28,413 471.28,402" fill="#34d399"/>
<rect x="419.3" y="419.0" width="104.0" height="23" rx="11.5" fill="#34d399"/>
<text x="471.3" y="434.5" text-anchor="middle" class="signal">Regime LONG</text>
<line x1="489.3" y1="182.8" x2="796" y2="182.8" stroke="#34d399" stroke-width="1.5" stroke-dasharray="5 5"/>
<text x="791.0" y="177.8" text-anchor="end" class="risk" fill="#34d399">TARGET</text>
<line x1="489.3" y1="397.7" x2="796" y2="397.7" stroke="#f87171" stroke-width="1.5" stroke-dasharray="5 5"/>
<text x="791.0" y="392.7" text-anchor="end" class="risk" fill="#f87171">INVALIDATION</text>
<text x="866" y="136" class="condition-title">WHAT THE STRATEGY SEES</text>
<rect x="862" y="158" width="286" height="69" rx="13" fill="#111c31" stroke="#26364f"/>
<circle cx="884" cy="180" r="13" fill="#22d3ee"/>
<text x="884" y="184" text-anchor="middle" class="condition-number">1</text>
<text x="905" y="179" class="condition-copy"><tspan x="905" dy="0">Replayable pivots update trend</tspan><tspan x="905" dy="18">structure</tspan></text>
<rect x="862" y="241" width="286" height="69" rx="13" fill="#111c31" stroke="#26364f"/>
<circle cx="884" cy="263" r="13" fill="#60a5fa"/>
<text x="884" y="267" text-anchor="middle" class="condition-number">2</text>
<text x="905" y="262" class="condition-copy"><tspan x="905" dy="0">ATR offset defines the</tspan><tspan x="905" dy="18">trailing state</tspan></text>
<rect x="862" y="324" width="286" height="69" rx="13" fill="#111c31" stroke="#26364f"/>
<circle cx="884" cy="346" r="13" fill="#f59e0b"/>
<text x="884" y="350" text-anchor="middle" class="condition-number">3</text>
<text x="905" y="345" class="condition-copy"><tspan x="905" dy="0">Price crosses and flips</tspan><tspan x="905" dy="18">direction</tspan></text>
<rect x="862" y="407" width="286" height="69" rx="13" fill="#111c31" stroke="#26364f"/>
<circle cx="884" cy="429" r="13" fill="#34d399"/>
<text x="884" y="433" text-anchor="middle" class="condition-number">4</text>
<text x="905" y="428" class="condition-copy"><tspan x="905" dy="0">Optional structure, volume,</tspan><tspan x="905" dy="18">and regime filters pass</tspan></text>
<text x="32" y="545" class="footer">LONG EXAMPLE • MIRRORED RULES CAN PRODUCE THE OPPOSITE SIDE • EXACT THRESHOLDS ARE CONFIGURABLE</text>
</svg>
